<mxfile host="65bd71144e">
    <diagram id="LIu3EXpIyD_nAZn1qyI-" name="Page-1">
        <mxGraphModel dx="951" dy="839" grid="1" gridSize="10" guides="1" tooltips="1" connect="1" arrows="1" fold="1" page="1" pageScale="1" pageWidth="850" pageHeight="1100" math="0" shadow="0">
            <root>
                <mxCell id="0"/>
                <mxCell id="1" parent="0"/>
                <mxCell id="2" value="Start&lt;br&gt;" style="rounded=1;whiteSpace=wrap;html=1;strokeColor=#FFFFFF;fillColor=#000000;fillStyle=solid;fontColor=#FFFFFF;" parent="1" vertex="1">
                    <mxGeometry x="360" y="40" width="120" height="40" as="geometry"/>
                </mxCell>
                <mxCell id="3" value="Put the number in 2's Complement fixed point notation" style="shape=process;whiteSpace=wrap;html=1;backgroundOutline=1;strokeColor=#FFFFFF;fillStyle=solid;fillColor=#000000;fontColor=#FFFFFF;" parent="1" vertex="1">
                    <mxGeometry x="340" y="120" width="160" height="60" as="geometry"/>
                </mxCell>
                <mxCell id="5" value="" style="endArrow=classic;html=1;entryX=0.5;entryY=0;entryDx=0;entryDy=0;exitX=0.5;exitY=1;exitDx=0;exitDy=0;strokeColor=#FFFFFF;fontColor=#FFFFFF;" parent="1" source="2" target="3" edge="1">
                    <mxGeometry width="50" height="50" relative="1" as="geometry">
                        <mxPoint x="480" y="310" as="sourcePoint"/>
                        <mxPoint x="530" y="260" as="targetPoint"/>
                    </mxGeometry>
                </mxCell>
                <mxCell id="6" value="" style="endArrow=classic;html=1;entryX=0.5;entryY=0;entryDx=0;entryDy=0;exitX=0.5;exitY=1;exitDx=0;exitDy=0;strokeColor=#FFFFFF;fontColor=#FFFFFF;" parent="1" source="3" edge="1">
                    <mxGeometry width="50" height="50" relative="1" as="geometry">
                        <mxPoint x="480" y="310" as="sourcePoint"/>
                        <mxPoint x="420" y="220" as="targetPoint"/>
                    </mxGeometry>
                </mxCell>
                <mxCell id="13" value="Is the desired number positive?" style="rhombus;whiteSpace=wrap;html=1;strokeColor=#FFFFFF;fillStyle=solid;fillColor=#000000;fontColor=#FFFFFF;" parent="1" vertex="1">
                    <mxGeometry x="350" y="220" width="140" height="120" as="geometry"/>
                </mxCell>
                <mxCell id="14" value="Shift the binary point left until the number starts with 0b0.1" style="shape=process;whiteSpace=wrap;html=1;backgroundOutline=1;strokeColor=#FFFFFF;fillStyle=solid;fillColor=#000000;fontColor=#FFFFFF;" parent="1" vertex="1">
                    <mxGeometry x="540" y="360" width="120" height="60" as="geometry"/>
                </mxCell>
                <mxCell id="16" value="Shift the binary point left until the number starts with 0b1.0" style="shape=process;whiteSpace=wrap;html=1;backgroundOutline=1;strokeColor=#FFFFFF;fillStyle=solid;fillColor=#000000;fontColor=#FFFFFF;" parent="1" vertex="1">
                    <mxGeometry x="180" y="360" width="120" height="60" as="geometry"/>
                </mxCell>
                <mxCell id="18" value="" style="endArrow=classic;html=1;exitX=1;exitY=0.5;exitDx=0;exitDy=0;entryX=0;entryY=0.5;entryDx=0;entryDy=0;strokeColor=#FFFFFF;fontColor=#FFFFFF;" parent="1" source="13" target="25" edge="1">
                    <mxGeometry width="50" height="50" relative="1" as="geometry">
                        <mxPoint x="460" y="350" as="sourcePoint"/>
                        <mxPoint x="520" y="340" as="targetPoint"/>
                    </mxGeometry>
                </mxCell>
                <mxCell id="19" value="" style="endArrow=classic;html=1;exitX=0;exitY=0.5;exitDx=0;exitDy=0;entryX=1;entryY=0.5;entryDx=0;entryDy=0;strokeColor=#FFFFFF;fontColor=#FFFFFF;" parent="1" source="13" target="24" edge="1">
                    <mxGeometry width="50" height="50" relative="1" as="geometry">
                        <mxPoint x="310" y="350" as="sourcePoint"/>
                        <mxPoint x="330" y="320" as="targetPoint"/>
                    </mxGeometry>
                </mxCell>
                <mxCell id="20" value="Yes" style="text;html=1;strokeColor=none;fillColor=none;align=center;verticalAlign=middle;whiteSpace=wrap;rounded=0;fontColor=#FFFFFF;" parent="1" vertex="1">
                    <mxGeometry x="470" y="260" width="60" height="30" as="geometry"/>
                </mxCell>
                <mxCell id="22" value="No" style="text;html=1;strokeColor=none;fillColor=none;align=center;verticalAlign=middle;whiteSpace=wrap;rounded=0;fontColor=#FFFFFF;" parent="1" vertex="1">
                    <mxGeometry x="310" y="260" width="60" height="30" as="geometry"/>
                </mxCell>
                <mxCell id="24" value="Is the desired number between 1 and -1?" style="rhombus;whiteSpace=wrap;html=1;strokeColor=#FFFFFF;fillStyle=solid;fillColor=#000000;fontColor=#FFFFFF;" parent="1" vertex="1">
                    <mxGeometry x="160" y="240" width="160" height="80" as="geometry"/>
                </mxCell>
                <mxCell id="25" value="Is the desired number between 1 and -1?" style="rhombus;whiteSpace=wrap;html=1;strokeColor=#FFFFFF;fillStyle=solid;fillColor=#000000;fontColor=#FFFFFF;" parent="1" vertex="1">
                    <mxGeometry x="520" y="240" width="160" height="80" as="geometry"/>
                </mxCell>
                <mxCell id="27" value="" style="endArrow=classic;html=1;exitX=0.5;exitY=1;exitDx=0;exitDy=0;entryX=0.5;entryY=0;entryDx=0;entryDy=0;strokeColor=#FFFFFF;fontColor=#FFFFFF;" parent="1" source="25" target="14" edge="1">
                    <mxGeometry width="50" height="50" relative="1" as="geometry">
                        <mxPoint x="420" y="370" as="sourcePoint"/>
                        <mxPoint x="420" y="410" as="targetPoint"/>
                    </mxGeometry>
                </mxCell>
                <mxCell id="28" value="" style="endArrow=classic;html=1;exitX=0.5;exitY=1;exitDx=0;exitDy=0;entryX=0.5;entryY=0;entryDx=0;entryDy=0;strokeColor=#FFFFFF;fontColor=#FFFFFF;" parent="1" source="24" target="16" edge="1">
                    <mxGeometry width="50" height="50" relative="1" as="geometry">
                        <mxPoint x="420" y="370" as="sourcePoint"/>
                        <mxPoint x="470" y="320" as="targetPoint"/>
                    </mxGeometry>
                </mxCell>
                <mxCell id="29" value="No" style="text;html=1;strokeColor=none;fillColor=none;align=center;verticalAlign=middle;whiteSpace=wrap;rounded=0;fontColor=#FFFFFF;" parent="1" vertex="1">
                    <mxGeometry x="220" y="320" width="60" height="30" as="geometry"/>
                </mxCell>
                <mxCell id="30" value="No" style="text;html=1;strokeColor=none;fillColor=none;align=center;verticalAlign=middle;whiteSpace=wrap;rounded=0;fontColor=#FFFFFF;" parent="1" vertex="1">
                    <mxGeometry x="580" y="320" width="60" height="30" as="geometry"/>
                </mxCell>
                <mxCell id="31" value="Shift the binary point right right until the number starts with 0b1.0" style="shape=process;whiteSpace=wrap;html=1;backgroundOutline=1;strokeColor=#FFFFFF;fillStyle=solid;fillColor=#000000;fontColor=#FFFFFF;" parent="1" vertex="1">
                    <mxGeometry x="30" y="360" width="120" height="60" as="geometry"/>
                </mxCell>
                <mxCell id="32" value="Shift the binary point right right until the number starts with 0b0.1" style="shape=process;whiteSpace=wrap;html=1;backgroundOutline=1;strokeColor=#FFFFFF;fillStyle=solid;fillColor=#000000;fontColor=#FFFFFF;" parent="1" vertex="1">
                    <mxGeometry x="690" y="360" width="120" height="60" as="geometry"/>
                </mxCell>
                <mxCell id="33" value="" style="endArrow=classic;html=1;exitX=0;exitY=0.5;exitDx=0;exitDy=0;entryX=0.5;entryY=0;entryDx=0;entryDy=0;strokeColor=#FFFFFF;fontColor=#FFFFFF;" parent="1" source="24" target="31" edge="1">
                    <mxGeometry width="50" height="50" relative="1" as="geometry">
                        <mxPoint x="320" y="250" as="sourcePoint"/>
                        <mxPoint x="370" y="200" as="targetPoint"/>
                        <Array as="points">
                            <mxPoint x="90" y="280"/>
                        </Array>
                    </mxGeometry>
                </mxCell>
                <mxCell id="34" value="" style="endArrow=classic;html=1;entryX=0.5;entryY=0;entryDx=0;entryDy=0;exitX=1;exitY=0.5;exitDx=0;exitDy=0;strokeColor=#FFFFFF;fontColor=#FFFFFF;" parent="1" source="25" target="32" edge="1">
                    <mxGeometry width="50" height="50" relative="1" as="geometry">
                        <mxPoint x="320" y="250" as="sourcePoint"/>
                        <mxPoint x="370" y="200" as="targetPoint"/>
                        <Array as="points">
                            <mxPoint x="750" y="280"/>
                        </Array>
                    </mxGeometry>
                </mxCell>
                <mxCell id="35" value="Yes" style="text;html=1;strokeColor=none;fillColor=none;align=center;verticalAlign=middle;whiteSpace=wrap;rounded=0;fontColor=#FFFFFF;" parent="1" vertex="1">
                    <mxGeometry x="120" y="280" width="60" height="30" as="geometry"/>
                </mxCell>
                <mxCell id="40" value="Yes" style="text;html=1;strokeColor=none;fillColor=none;align=center;verticalAlign=middle;whiteSpace=wrap;rounded=0;fontColor=#FFFFFF;" parent="1" vertex="1">
                    <mxGeometry x="660" y="280" width="60" height="30" as="geometry"/>
                </mxCell>
                <mxCell id="41" value="The number of places shifted is the exponent" style="rounded=0;whiteSpace=wrap;html=1;strokeColor=#FFFFFF;fillStyle=solid;fillColor=#000000;fontColor=#FFFFFF;" parent="1" vertex="1">
                    <mxGeometry x="180" y="450" width="120" height="60" as="geometry"/>
                </mxCell>
                <mxCell id="43" value="The number of places shifted is the exponent" style="rounded=0;whiteSpace=wrap;html=1;strokeColor=#FFFFFF;fillStyle=solid;fillColor=#000000;fontColor=#FFFFFF;" parent="1" vertex="1">
                    <mxGeometry x="540" y="450" width="120" height="60" as="geometry"/>
                </mxCell>
                <mxCell id="44" value="The number of places shifted is the negative version of the exponent" style="rounded=0;whiteSpace=wrap;html=1;strokeColor=#FFFFFF;fillStyle=solid;fillColor=#000000;fontColor=#FFFFFF;" parent="1" vertex="1">
                    <mxGeometry x="30" y="450" width="120" height="60" as="geometry"/>
                </mxCell>
                <mxCell id="45" value="The number of places shifted is the exponent" style="rounded=0;whiteSpace=wrap;html=1;strokeColor=#FFFFFF;fillStyle=solid;fillColor=#000000;fontColor=#FFFFFF;" parent="1" vertex="1">
                    <mxGeometry x="690" y="450" width="120" height="60" as="geometry"/>
                </mxCell>
                <mxCell id="46" value="" style="endArrow=classic;html=1;entryX=0.5;entryY=0;entryDx=0;entryDy=0;exitX=0.5;exitY=1;exitDx=0;exitDy=0;strokeColor=#FFFFFF;fontColor=#FFFFFF;" parent="1" source="16" target="41" edge="1">
                    <mxGeometry width="50" height="50" relative="1" as="geometry">
                        <mxPoint x="320" y="230" as="sourcePoint"/>
                        <mxPoint x="370" y="180" as="targetPoint"/>
                    </mxGeometry>
                </mxCell>
                <mxCell id="47" value="" style="endArrow=classic;html=1;entryX=0.5;entryY=0;entryDx=0;entryDy=0;exitX=0.5;exitY=1;exitDx=0;exitDy=0;strokeColor=#FFFFFF;fontColor=#FFFFFF;" parent="1" source="31" target="44" edge="1">
                    <mxGeometry width="50" height="50" relative="1" as="geometry">
                        <mxPoint x="320" y="230" as="sourcePoint"/>
                        <mxPoint x="370" y="180" as="targetPoint"/>
                    </mxGeometry>
                </mxCell>
                <mxCell id="48" value="" style="endArrow=classic;html=1;entryX=0.5;entryY=0;entryDx=0;entryDy=0;exitX=0.5;exitY=1;exitDx=0;exitDy=0;strokeColor=#FFFFFF;fontColor=#FFFFFF;" parent="1" source="14" target="43" edge="1">
                    <mxGeometry width="50" height="50" relative="1" as="geometry">
                        <mxPoint x="320" y="230" as="sourcePoint"/>
                        <mxPoint x="370" y="180" as="targetPoint"/>
                    </mxGeometry>
                </mxCell>
                <mxCell id="49" value="" style="endArrow=classic;html=1;entryX=0.5;entryY=0;entryDx=0;entryDy=0;exitX=0.5;exitY=1;exitDx=0;exitDy=0;strokeColor=#FFFFFF;fontColor=#FFFFFF;" parent="1" source="32" target="45" edge="1">
                    <mxGeometry width="50" height="50" relative="1" as="geometry">
                        <mxPoint x="320" y="230" as="sourcePoint"/>
                        <mxPoint x="370" y="180" as="targetPoint"/>
                    </mxGeometry>
                </mxCell>
                <mxCell id="50" value="Pack the bits of the mantissa and exponent together into one number" style="shape=process;whiteSpace=wrap;html=1;backgroundOutline=1;strokeColor=#FFFFFF;fillStyle=solid;fillColor=#000000;fontColor=#FFFFFF;" parent="1" vertex="1">
                    <mxGeometry x="340" y="550" width="160" height="60" as="geometry"/>
                </mxCell>
                <mxCell id="51" value="" style="endArrow=classic;html=1;entryX=0;entryY=0.5;entryDx=0;entryDy=0;exitX=0.5;exitY=1;exitDx=0;exitDy=0;strokeColor=#FFFFFF;fontColor=#FFFFFF;" parent="1" source="41" target="50" edge="1">
                    <mxGeometry width="50" height="50" relative="1" as="geometry">
                        <mxPoint x="320" y="420" as="sourcePoint"/>
                        <mxPoint x="370" y="370" as="targetPoint"/>
                        <Array as="points">
                            <mxPoint x="240" y="580"/>
                        </Array>
                    </mxGeometry>
                </mxCell>
                <mxCell id="52" value="" style="endArrow=classic;html=1;entryX=1;entryY=0.5;entryDx=0;entryDy=0;exitX=0.5;exitY=1;exitDx=0;exitDy=0;strokeColor=#FFFFFF;fontColor=#FFFFFF;" parent="1" source="43" target="50" edge="1">
                    <mxGeometry width="50" height="50" relative="1" as="geometry">
                        <mxPoint x="320" y="420" as="sourcePoint"/>
                        <mxPoint x="370" y="370" as="targetPoint"/>
                        <Array as="points">
                            <mxPoint x="600" y="580"/>
                        </Array>
                    </mxGeometry>
                </mxCell>
                <mxCell id="53" value="" style="endArrow=none;html=1;entryX=0.5;entryY=1;entryDx=0;entryDy=0;strokeColor=#FFFFFF;fontColor=#FFFFFF;" parent="1" target="44" edge="1">
                    <mxGeometry width="50" height="50" relative="1" as="geometry">
                        <mxPoint x="270" y="580" as="sourcePoint"/>
                        <mxPoint x="370" y="370" as="targetPoint"/>
                        <Array as="points">
                            <mxPoint x="90" y="580"/>
                        </Array>
                    </mxGeometry>
                </mxCell>
                <mxCell id="54" value="" style="endArrow=none;html=1;entryX=0.5;entryY=1;entryDx=0;entryDy=0;strokeColor=#FFFFFF;fontColor=#FFFFFF;" parent="1" target="45" edge="1">
                    <mxGeometry width="50" height="50" relative="1" as="geometry">
                        <mxPoint x="570" y="580" as="sourcePoint"/>
                        <mxPoint x="370" y="370" as="targetPoint"/>
                        <Array as="points">
                            <mxPoint x="750" y="580"/>
                        </Array>
                    </mxGeometry>
                </mxCell>
                <mxCell id="55" value="End" style="rounded=1;whiteSpace=wrap;html=1;strokeColor=#FFFFFF;fillStyle=solid;fillColor=#000000;fontColor=#FFFFFF;" parent="1" vertex="1">
                    <mxGeometry x="360" y="660" width="120" height="60" as="geometry"/>
                </mxCell>
                <mxCell id="56" value="" style="endArrow=classic;html=1;entryX=0.5;entryY=0;entryDx=0;entryDy=0;exitX=0.5;exitY=1;exitDx=0;exitDy=0;strokeColor=#FFFFFF;fontColor=#FFFFFF;" parent="1" source="50" target="55" edge="1">
                    <mxGeometry width="50" height="50" relative="1" as="geometry">
                        <mxPoint x="320" y="420" as="sourcePoint"/>
                        <mxPoint x="370" y="370" as="targetPoint"/>
                    </mxGeometry>
                </mxCell>
            </root>
        </mxGraphModel>
    </diagram>
</mxfile>